<svg width="10" height="11" viewBox="0 0 10 11" fill="none" xmlns="http://www.w3.org/2000/svg">
<g clip-path="url(#clip0_316_4893)">
<rect width="10" height="10" transform="translate(0 0.5)" fill="white" fill-opacity="0.01"/>
<path fill-rule="evenodd" clip-rule="evenodd" d="M8.65833 1.84044C8.68743 1.86946 8.71052 1.90395 8.72628 1.94191C8.74203 1.97988 8.75014 2.02058 8.75014 2.06169C8.75014 2.10279 8.74203 2.14349 8.72628 2.18146C8.71052 2.21942 8.68743 2.25391 8.65833 2.28294L1.78333 9.15794C1.72465 9.21661 1.64507 9.24958 1.56208 9.24958C1.4791 9.24958 1.39951 9.21661 1.34083 9.15794C1.28215 9.09926 1.24919 9.01967 1.24919 8.93669C1.24919 8.8537 1.28215 8.77411 1.34083 8.71544L8.21583 1.84044C8.24486 1.81133 8.27935 1.78824 8.31731 1.77249C8.35528 1.75674 8.39598 1.74863 8.43708 1.74863C8.47819 1.74863 8.51889 1.75674 8.55685 1.77249C8.59482 1.78824 8.6293 1.81133 8.65833 1.84044Z" fill="#6C757D"/>
<path fill-rule="evenodd" clip-rule="evenodd" d="M1.34083 1.84044C1.31173 1.86946 1.28864 1.90395 1.27289 1.94191C1.25713 1.97988 1.24902 2.02058 1.24902 2.06169C1.24902 2.10279 1.25713 2.14349 1.27289 2.18146C1.28864 2.21942 1.31173 2.25391 1.34083 2.28294L8.21583 9.15794C8.27451 9.21661 8.3541 9.24958 8.43708 9.24958C8.52007 9.24958 8.59965 9.21661 8.65833 9.15794C8.71701 9.09926 8.74998 9.01967 8.74998 8.93669C8.74998 8.8537 8.71701 8.77411 8.65833 8.71544L1.78333 1.84044C1.7543 1.81133 1.71982 1.78824 1.68185 1.77249C1.64389 1.75674 1.60319 1.74863 1.56208 1.74863C1.52098 1.74863 1.48028 1.75674 1.44231 1.77249C1.40435 1.78824 1.36986 1.81133 1.34083 1.84044Z" fill="#6C757D"/>
</g>
<defs>
<clipPath id="clip0_316_4893">
<rect width="10" height="10" fill="white" transform="translate(0 0.5)"/>
</clipPath>
</defs>
</svg>
