<svg width="12" height="13" viewBox="0 0 12 13" fill="none" xmlns="http://www.w3.org/2000/svg">
<g clip-path="url(#clip0_316_4880)">
<rect width="12" height="12" transform="translate(0 0.5)" fill="white" fill-opacity="0.01"/>
<path d="M4.5 3.87418C4.5 4.17254 4.38147 4.45869 4.1705 4.66967C3.95952 4.88065 3.67337 4.99918 3.375 4.99918C3.07663 4.99918 2.79048 4.88065 2.5795 4.66967C2.36853 4.45869 2.25 4.17254 2.25 3.87418C2.25 3.57581 2.36853 3.28966 2.5795 3.07868C2.79048 2.8677 3.07663 2.74918 3.375 2.74918C3.67337 2.74918 3.95952 2.8677 4.1705 3.07868C4.38147 3.28966 4.5 3.57581 4.5 3.87418ZM3.75 3.87418C3.75 3.77472 3.71049 3.67934 3.64017 3.60901C3.56984 3.53869 3.47446 3.49918 3.375 3.49918C3.27554 3.49918 3.18016 3.53869 3.10984 3.60901C3.03951 3.67934 3 3.77472 3 3.87418C3 3.97363 3.03951 4.06902 3.10984 4.13934C3.18016 4.20967 3.27554 4.24918 3.375 4.24918C3.47446 4.24918 3.56984 4.20967 3.64017 4.13934C3.71049 4.06902 3.75 3.97363 3.75 3.87418Z" fill="#212529"/>
<path d="M1.5 1.24918H4.9395C5.1384 1.24922 5.32913 1.32826 5.46975 1.46893L10.7198 6.71893C10.8604 6.85957 10.9393 7.0503 10.9393 7.24918C10.9393 7.44805 10.8604 7.63878 10.7198 7.77943L7.28025 11.2189C7.1396 11.3595 6.94887 11.4385 6.75 11.4385C6.55113 11.4385 6.3604 11.3595 6.21975 11.2189L0.96975 5.96893C0.829088 5.82831 0.750042 5.63757 0.75 5.43868V1.99918C0.75 1.80026 0.829018 1.6095 0.96967 1.46885C1.11032 1.32819 1.30109 1.24918 1.5 1.24918ZM1.5 5.43868L6.75 10.6887L10.1895 7.24918L4.9395 1.99918H1.5V5.43868Z" fill="#212529"/>
</g>
<defs>
<clipPath id="clip0_316_4880">
<rect width="12" height="12" fill="white" transform="translate(0 0.5)"/>
</clipPath>
</defs>
</svg>
